<?xml version="1.0" encoding="utf-8"?>
<!-- Generator: Adobe Illustrator 25.0.0, SVG Export Plug-In . SVG Version: 6.00 Build 0)  -->
<svg version="1.1" id="Layer_1" xmlns="http://www.w3.org/2000/svg" xmlns:xlink="http://www.w3.org/1999/xlink" x="0px" y="0px"
	 viewBox="0 0 800 500" style="enable-background:new 0 0 800 500;" xml:space="preserve">
<style type="text/css">
	.st0{fill:#FFBA00;}
	.st1{fill:#FF9500;}
	.st2{fill:#FFFFFF;}
</style>
<g>
	<path class="st0" d="M525.1,461.7H274.9c-16,0-28.9-12.9-28.9-28.9V67.1c0-16,12.9-28.9,28.9-28.9h173.3L554,144.1v288.7
		C554,448.8,541.1,461.7,525.1,461.7z"/>
	<polygon class="st1" points="448.1,38.3 554,144.1 448.1,144.1 	"/>
	<rect x="366.3" y="322.2" class="st2" width="67.4" height="24.1"/>
	<path class="st2" d="M400,182.6c-34.6,0-62.5,28-62.5,62.5c0,22.3,11.7,41.8,29.3,52.9h66.3c17.5-11.1,29.3-30.6,29.3-52.9
		c0-34.6-28-62.5-62.5-62.5H400z"/>
</g>
</svg>
